Coordinates
version=1
nRows=35
nColumns=18
inDegrees=yes

Units are S.I. units (second, meters, Newtons, ...)
If the header above contains a line with 'inDegrees', this indicates whether rotational values are in degrees (yes) or radians (no).

endheader
time	TH_y	TH_x	TH_z	TH_x_trans	TH_y_trans	TH_z_trans	SC_y	SC_z	SC_x	AC_y	AC_z	AC_x	GH_y	GH_z	GH_yy	EL_x	PS_y
     81.06000000	   -147.83757897	     -3.90451197	      0.96037208	     -0.00104482	      1.47031188	      0.02034153	    -14.35737032	      6.93816418	      2.98640812	     84.93883823	     -3.69666673	    -10.63253036	    -29.55931314	     28.04582097	    -35.84882542	     81.93059283	     55.85830514
     81.07000000	   -147.74322658	     -4.02098553	      1.09362208	     -0.00081659	      1.47024004	      0.02043043	    -14.43041411	      6.64595169	      2.86042811	     84.75614694	     -3.85171777	    -10.42679642	    -29.67541669	     28.52396517	    -35.29963124	     82.12094128	     51.61899506
     81.08000000	   -147.73074372	     -4.02825362	      1.07466992	     -0.00085816	      1.47036411	      0.02057848	    -14.42363928	      6.61586958	      2.86362270	     84.75168227	     -3.85163890	    -10.40344457	    -29.67624155	     28.51401222	    -35.30695083	     82.11614210	     51.61483382
     81.09000000	   -147.65805822	     -4.16973055	      1.15477845	     -0.00070072	      1.47027378	      0.02063923	    -14.41904071	      6.50397011	      2.90385903	     84.66801652	     -3.82172557	    -10.28036110	    -29.73992517	     28.49892655	    -35.37891509	     82.12978914	     51.54075245
     81.10000000	   -147.64914380	     -4.17735857	      1.13934735	     -0.00067312	      1.47051302	      0.02077692	    -14.41362092	      6.47811648	      2.90310665	     84.66838048	     -3.82538203	    -10.26595667	    -29.73704652	     28.49044097	    -35.37958383	     82.13273154	     51.53426648
     81.11000000	   -147.62233076	     -4.23856246	      1.14363829	     -0.00071400	      1.47041025	      0.02083291	    -14.41263387	      6.38992224	      2.93882630	     84.61306241	     -3.80034053	    -10.22711292	    -29.78296945	     28.49103261	    -35.42770180	     82.14895246	     51.48366363
     81.12000000	   -147.56290003	     -4.33613674	      1.29314634	     -0.00041257	      1.47045100	      0.02094367	    -14.38521781	      6.03187226	      2.76112301	     84.26298378	     -4.02181020	    -10.05405896	    -30.01525612	     29.12068052	    -34.71571111	     82.45682904	     48.31074112
     81.13000000	   -147.56153681	     -4.33709287	      1.29224222	     -0.00043674	      1.47043381	      0.02108583	    -14.38450237	      6.03051615	      2.76070857	     84.26204730	     -4.02240376	    -10.05383758	    -30.01571331	     29.11995449	    -34.71580110	     82.45519625	     48.31056711
     81.14000000	   -147.55786558	     -4.35926425	      1.28094967	     -0.00044918	      1.47047040	      0.02131708	    -14.38469193	      6.01839732	      2.75292273	     84.24635625	     -4.03184271	    -10.05497276	    -30.02624778	     29.11011430	    -34.71969179	     82.43491608	     48.30710186
     81.15000000	   -147.55653967	     -4.35983279	      1.28301974	     -0.00049427	      1.47049867	      0.02147933	    -14.38399215	      6.01981715	      2.75436055	     84.24352291	     -4.03030239	    -10.05682369	    -30.02871426	     29.11168591	    -34.72111270	     82.43237987	     48.30654678
     81.16000000	   -147.55707658	     -4.38840875	      1.28472667	     -0.00033393	      1.47028027	      0.02164623	    -14.38489172	      6.02722902	      2.75076046	     84.20494511	     -4.03386003	    -10.08220723	    -30.05970144	     29.11206435	    -34.73334560	     82.38834565	     48.29848966
     81.17000000	   -147.49772670	     -4.43602739	      1.27484082	     -0.00026568	      1.47041271	      0.02151338	    -14.32879152	      6.03362119	      2.75898113	     84.14325410	     -4.02728927	    -10.13775757	    -30.10058971	     29.12826800	    -34.73741987	     82.28044013	     48.27590677
     81.18000000	   -147.50907612	     -4.43288970	      1.28225108	     -0.00022006	      1.47028905	      0.02168302	    -14.33837536	      6.04592713	      2.75518784	     84.12605577	     -4.02993136	    -10.15461688	    -30.11645860	     29.13181616	    -34.74161941	     82.26736264	     48.27196759
     81.19000000	   -147.49018836	     -4.40726247	      1.27626895	     -0.00008371	      1.47025737	      0.02170448	    -14.30457969	      6.09353406	      2.73477763	     84.09449834	     -4.04687435	    -10.24020025	    -30.13571525	     29.15321205	    -34.70982086	     82.19319852	     48.26176519
     81.20000000	   -147.50586205	     -4.39213240	      1.28295009	     -0.00007902	      1.47022249	      0.02174568	    -14.31662964	      6.10869329	      2.73450864	     84.08296239	     -4.04553065	    -10.25523099	    -30.14838159	     29.16097858	    -34.71337302	     82.19113167	     48.26215240
     81.21000000	   -147.51987629	     -4.36817042	      1.29540208	     -0.00001855	      1.47013638	      0.02178120	    -14.32453355	      6.13856536	      2.73395305	     84.07725040	     -4.04288760	    -10.28237928	    -30.15660506	     29.17705842	    -34.70826270	     82.19443635	     48.26807141
     81.22000000	   -147.65365361	     -4.17415861	      1.13094418	     -0.00041041	      1.47032770	      0.02187052	    -14.15614643	      6.26828820	      2.56518206	     83.66898248	     -4.19087326	     -9.97947639	    -30.42129428	     29.62138614	    -34.23072451	     82.19014318	     51.26913646
     81.23000000	   -147.67620593	     -4.15032528	      1.15730568	     -0.00029385	      1.47017437	      0.02192877	    -14.18610275	      6.32256469	      2.55361182	     83.70763801	     -4.19604737	    -10.03150324	    -30.40006482	     29.66153035	    -34.18600571	     82.26708056	     51.30997279
     81.24000000	   -147.73404340	     -4.07631429	      1.07459984	     -0.00045636	      1.47025760	      0.02205848	    -14.22486820	      6.28695780	      2.50058424	     83.38763727	     -4.25365926	     -9.75876594	    -30.66708877	     30.11509651	    -33.85151023	     82.24927479	     56.00022127
     81.25000000	   -147.82680965	     -4.00995487	      1.03527072	     -0.00060700	      1.47021776	      0.02211978	    -14.11650715	      6.34558981	      2.42907015	     83.12175700	     -4.31494393	     -9.53323599	    -30.86057583	     30.37453471	    -33.63018017	     82.42676823	     59.15832036
     81.26000000	   -147.86038435	     -3.96557163	      1.07153751	     -0.00057514	      1.47009368	      0.02215933	    -14.17335239	      6.40912690	      2.41060156	     83.22026242	     -4.32479831	     -9.57273215	    -30.79690142	     30.42134325	    -33.55782526	     82.61945443	     59.24119261
     81.27000000	   -147.92116697	     -3.91502170	      1.01695710	     -0.00068679	      1.47021557	      0.02231157	    -14.25221169	      6.32143867	      2.43029469	     82.91990479	     -4.30517900	     -9.32730920	    -31.07937647	     30.78324826	    -33.44250054	     82.66766692	     67.48966302
     81.28000000	   -147.99893658	     -3.89102122	      0.98157148	     -0.00080449	      1.47008950	      0.02237408	    -14.08818899	      6.43264620	      2.39975499	     82.64137266	     -4.31616721	     -9.13956335	    -31.26808964	     30.86337871	    -33.42961095	     83.01090165	     72.63063145
     81.29000000	   -148.07726482	     -3.86339005	      0.93027410	     -0.00095190	      1.47003359	      0.02257301	    -14.23711690	      6.47651467	      2.46284879	     82.62215207	     -4.24327436	     -8.99757034	    -31.33627232	     31.06298043	    -33.40126785	     83.07332273	     78.54230721
     81.30000000	   -148.10461402	     -3.80766333	      0.94946157	     -0.00094466	      1.47007679	      0.02257978	    -14.28719742	      6.44847739	      2.50997468	     82.49196469	     -4.20166653	     -8.95936396	    -31.45994218	     31.14993478	    -33.44177998	     83.28608030	     84.99151600
     81.31000000	   -147.79982608	     -3.74951696	      0.99030565	     -0.00063873	      1.47014810	      0.02243526	    -14.63980344	      6.32437023	      2.54735954	     82.39496481	     -4.18003495	     -9.04348087	    -31.62274818	     31.25658899	    -33.52277634	     83.53038921	     91.19313326
     81.32000000	   -148.19859730	     -3.75568954	      0.89830882	     -0.00114395	      1.47001628	      0.02272149	    -14.26333592	      6.59588687	      2.64995102	     82.18349137	     -4.03766253	     -8.79285061	    -31.70729836	     31.14400071	    -33.74122107	     83.84374040	     99.10767849
     81.33000000	   -148.24194221	     -3.75332582	      0.86803980	     -0.00122523	      1.46997602	      0.02285412	    -14.36719479	      6.67330409	      2.79187225	     82.15392783	     -3.87660444	     -8.77987809	    -31.74882473	     31.07821761	    -33.99921061	     84.08533648	    106.34162439
     81.34000000	   -148.29671587	     -3.71926720	      0.87133999	     -0.00129797	      1.46998901	      0.02289541	    -14.41229418	      6.74765667	      2.94088433	     82.11679430	     -3.71330809	     -8.82287768	    -31.77139980	     30.90959474	    -34.31709458	     84.38973532	    113.41813695
     81.35000000	   -148.34347761	     -3.71580949	      0.87023778	     -0.00133670	      1.46997793	      0.02297452	    -14.47472678	      6.82568173	      3.11040575	     82.11800630	     -3.52693974	     -8.91084203	    -31.76586416	     30.70685922	    -34.67512870	     84.75145861	    120.08688708
     81.36000000	   -148.38502904	     -3.71096888	      0.87541997	     -0.00136296	      1.46997953	      0.02303581	    -14.53596763	      6.91055637	      3.28719400	     82.16167313	     -3.33334880	     -9.05073534	    -31.72342368	     30.45073828	    -35.05923224	     85.14408022	    126.22536326
     81.37000000	   -148.38789718	     -3.70074109	      0.91608974	     -0.00135595	      1.46992210	      0.02285956	    -14.53793806	      6.95093562	      3.30436158	     82.16114507	     -3.31082409	     -9.08114374	    -31.72926608	     30.48392140	    -35.05829977	     85.14996667	    126.24041137
     81.38000000	   -148.46225374	     -3.72029322	      0.87868495	     -0.00143979	      1.46998562	      0.02317310	    -14.63688351	      7.02749605	      3.51415582	     82.20578230	     -3.07371236	     -9.17654420	    -31.71778923	     30.28650351	    -35.48245732	     85.91578811	    136.45541914
     81.39000000	   -148.45800443	     -3.73469990	      0.92814686	     -0.00137438	      1.46987382	      0.02316588	    -14.63020267	      7.08255309	      3.51191472	     82.23383779	     -3.06852189	     -9.24267652	    -31.69697106	     30.32197723	    -35.44625251	     85.92031582	    136.49910807
     81.40000000	   -148.51762206	     -3.72568773	      0.92584944	     -0.00143582	      1.47002232	      0.02326636	    -14.73227325	      7.14376997	      3.72800821	     82.42554177	     -2.83252749	     -9.49037964	    -31.54017929	     29.96109893	    -35.90445893	     86.49101352	    143.96525892
